# xmcd
#
# Track frame offsets: 
#        150
#        18081
#        34858
#        50993
#        72119
#        95069
#        124867
#        146254
#        163900
#        182761
#        200564
#        220346
#
# Disc length: 3648 seconds
#
# Revision: 0
# Processed by: cddbd v1.5.2PL0 Copyright (c) Steve Scherf et al.
# Submitted via: ExactAudioCopyFreeDBPlugin 1.0
#
DISCID=b40e3e0c
DTITLE=Keziah Jones - Nigerian Wood
DYEAR=2008
DGENRE=Blues
TTITLE0=Nigerian wood
TTITLE1=African Android
TTITLE2=My Kinda Girl
TTITLE3=Long Distance Love
TTITLE4=Beautifulblackbutterfly
TTITLE5=Pimpin'
TTITLE6=Lagos vs. New York
TTITLE7=1973 (Joker Reparations)
TTITLE8=Unintended Consequences
TTITLE9=Blue Is The Mind
TTITLE10=In Love Forever
TTITLE11=My Brother
EXTD=
EXTT0=
EXTT1=
EXTT2=
EXTT3=
EXTT4=
EXTT5=
EXTT6=
EXTT7=
EXTT8=
EXTT9=
EXTT10=
EXTT11=
PLAYORDER=
